<?xml version="1.0" standalone="no"?>
<!DOCTYPE svg PUBLIC "-//W3C//DTD SVG 20010904//EN"
 "http://www.w3.org/TR/2001/REC-SVG-20010904/DTD/svg10.dtd">
<svg version="1.0" xmlns="http://www.w3.org/2000/svg"
 width="500.000000pt" height="500.000000pt" viewBox="0 0 500.000000 500.000000"
 preserveAspectRatio="xMidYMid meet">

<g transform="translate(0.000000,500.000000) scale(0.100000,-0.100000)"
fill="#000000" stroke="none">
<path d="M2390 4874 c-19 -2 -80 -9 -135 -15 -406 -45 -849 -277 -1126 -590
-127 -143 -199 -249 -280 -412 -135 -269 -193 -519 -192 -832 0 -298 55 -538
180 -798 l57 -117 47 46 47 46 -40 81 c-173 353 -216 783 -117 1172 74 292
212 539 429 768 216 229 504 396 819 477 129 33 274 50 421 50 338 0 652 -92
934 -274 l82 -53 49 42 49 43 -102 67 c-221 145 -482 245 -728 280 -105 15
-333 26 -394 19z"/>
<path d="M3864 4541 c-74 -40 -148 -102 -335 -281 l-165 -158 -220 29 c-120
16 -223 30 -227 32 -5 1 8 23 27 47 44 56 53 92 32 125 -12 19 -25 25 -50 25
-41 0 -71 -23 -141 -109 -31 -38 -58 -61 -70 -61 -26 0 -275 46 -280 52 -3 3
11 23 30 45 42 49 46 89 12 121 -40 38 -63 29 -153 -59 l-83 -82 -63 7 c-35 4
-109 14 -165 22 -135 19 -160 13 -237 -65 -33 -33 -58 -63 -55 -65 2 -3 79
-32 169 -65 574 -208 762 -295 878 -405 103 -98 97 -161 -29 -302 -113 -126
-397 -404 -413 -404 -21 0 -404 48 -436 55 -19 4 -43 -8 -103 -51 -43 -31 -74
-61 -70 -65 4 -4 94 -56 198 -115 105 -58 194 -110 199 -115 5 -5 -2 -25 -18
-50 -15 -22 -26 -43 -23 -45 2 -3 26 5 52 16 38 16 50 18 57 8 4 -7 56 -99
115 -205 86 -153 111 -189 121 -180 8 6 34 40 60 75 l45 64 -29 235 -29 235
190 184 c194 189 266 247 358 290 101 46 193 22 252 -67 19 -28 96 -232 204
-541 l174 -497 54 46 c30 26 61 59 69 74 19 38 17 103 -5 229 -33 183 -36 168
51 258 43 44 82 92 88 108 15 37 5 73 -23 83 -28 11 -59 -1 -109 -41 -21 -17
-41 -28 -45 -25 -7 7 -53 253 -53 284 0 14 22 42 65 80 103 91 126 142 85 183
-29 29 -49 25 -110 -25 -30 -24 -56 -42 -60 -39 -3 3 -19 108 -36 232 l-31
227 136 144 c241 254 331 375 331 446 0 16 -12 38 -29 56 -39 38 -88 39 -157
0z"/>
<path d="M3926 4095 l-38 -46 24 -32 c38 -50 96 -150 140 -240 173 -353 216
-783 117 -1172 -127 -500 -482 -928 -945 -1138 -132 -60 -304 -113 -442 -137
-157 -27 -407 -27 -564 0 -131 22 -335 85 -440 135 -40 19 -77 35 -83 35 -6 0
-30 -19 -53 -43 l-43 -43 118 -56 c145 -69 310 -122 468 -150 171 -30 459 -30
632 0 211 37 446 125 638 240 235 140 472 374 614 605 188 307 275 615 275
977 0 318 -61 569 -203 847 -61 119 -147 253 -166 260 -6 2 -28 -17 -49 -42z"/>
<path d="M1175 2230 l-430 -430 45 -45 c24 -25 49 -45 55 -45 5 0 182 172 392
383 l383 382 -8 93 -7 92 -430 -430z"/>
<path d="M1175 1800 l-520 -520 50 -50 50 -50 522 522 523 523 -47 47 c-26 27
-50 48 -53 48 -3 0 -239 -234 -525 -520z"/>
<path d="M1575 1750 l-390 -390 50 -50 50 -50 427 427 428 428 -67 6 c-38 3
-77 8 -88 12 -17 6 -87 -60 -410 -383z"/>
<path d="M185 776 c-51 -19 -110 -82 -124 -132 -41 -147 22 -279 144 -304 53
-11 150 -6 159 8 2 4 6 30 7 57 l4 50 -65 -3 c-55 -3 -68 0 -84 16 -41 46 -40
169 1 200 17 13 70 12 118 -3 18 -5 22 0 32 47 6 29 7 57 3 62 -16 16 -152 17
-195 2z"/>
<path d="M1495 778 c-89 -31 -138 -108 -138 -218 -1 -85 16 -131 63 -173 45
-42 125 -62 199 -52 47 6 49 8 55 43 13 80 12 82 -43 75 -98 -11 -131 19 -131
122 0 47 4 60 26 82 22 22 32 25 68 20 23 -3 49 -9 59 -12 18 -7 28 17 30 76
2 27 -3 34 -23 40 -37 11 -131 9 -165 -3z"/>
<path d="M4713 769 c-54 -27 -83 -73 -83 -132 0 -59 24 -87 110 -130 71 -35
88 -62 46 -73 -17 -4 -44 3 -82 20 -31 14 -60 26 -64 26 -9 0 -29 -119 -21
-124 3 -2 33 -9 65 -16 144 -29 259 34 259 142 0 54 -27 86 -108 128 -38 19
-70 40 -72 47 -8 23 30 32 72 16 73 -27 79 -25 91 37 l11 55 -36 12 c-59 19
-141 16 -188 -8z"/>
<path d="M473 560 l2 -220 68 0 67 0 -6 79 -7 78 37 7 c20 4 52 4 72 0 l36 -7
-4 -78 -3 -79 67 0 68 0 0 220 0 220 -69 0 -69 0 1 -82 2 -83 -62 -3 -63 -3 0
86 0 85 -70 0 -70 0 3 -220z"/>
<path d="M985 560 l0 -220 158 0 157 0 0 55 0 55 -90 0 -90 0 0 30 0 30 69 0
69 0 4 51 c1 28 1 53 -1 55 -2 2 -35 4 -73 4 l-68 0 0 31 0 32 90 -5 c78 -5
90 -3 90 11 0 9 3 33 6 54 l7 37 -164 0 -164 0 0 -220z"/>
<path d="M1771 560 l1 -220 67 0 68 0 -5 78 c-7 126 -2 128 58 20 30 -54 60
-100 67 -102 17 -7 143 15 143 25 0 4 -27 45 -60 91 -93 130 -91 111 -21 222
34 53 61 99 61 102 0 2 -31 4 -69 4 l-68 0 -47 -80 c-26 -44 -51 -82 -56 -85
-5 -3 -6 31 -3 80 l6 85 -72 0 -71 0 1 -220z"/>
<path d="M2500 773 c0 -5 -9 -96 -20 -203 -11 -107 -20 -203 -20 -212 0 -15 9
-18 54 -18 l53 0 7 46 c3 26 6 72 7 103 0 31 4 65 8 76 7 16 11 8 25 -40 42
-147 37 -140 93 -143 l50 -3 39 108 39 108 6 -60 c4 -33 7 -90 8 -127 l1 -68
61 0 60 0 -6 68 c-4 37 -12 135 -18 217 l-12 150 -79 0 -79 0 -27 -103 c-16
-57 -30 -106 -33 -108 -6 -7 -10 7 -37 124 l-22 92 -79 0 c-43 0 -79 -3 -79
-7z"/>
<path d="M3065 560 l0 -220 68 0 67 0 0 220 0 220 -67 0 -68 0 0 -220z"/>
<path d="M3320 560 l0 -220 129 0 129 0 4 48 c3 26 3 50 1 55 -2 4 -33 7 -69
7 l-64 0 0 165 0 165 -65 0 -65 0 0 -220z"/>
<path d="M3670 560 l0 -220 65 0 65 0 0 79 0 79 35 6 c19 4 51 4 71 0 l36 -7
-7 -78 -6 -79 68 0 69 0 2 220 2 220 -70 0 -70 0 0 -85 0 -86 -62 3 -63 3 3
83 2 82 -70 0 -70 0 0 -220z"/>
<path d="M4242 673 c-18 -59 -47 -159 -66 -220 l-34 -113 69 0 69 0 0 30 c0
36 23 50 84 50 46 0 46 0 52 -40 l7 -40 68 0 c38 0 69 3 69 8 -1 4 -27 101
-59 217 l-57 210 -86 3 -85 3 -31 -108z m133 -85 c8 -34 11 -66 9 -70 -3 -4
-19 -8 -36 -8 -30 0 -30 1 -24 38 9 56 27 115 33 108 3 -2 11 -33 18 -68z"/>
</g>
</svg>
