<svg version="1.1" id="Layer_1" xmlns="http://www.w3.org/2000/svg" xmlns:xlink="http://www.w3.org/1999/xlink" x="0px" y="0px"
	 width="100%" viewBox="0 0 500 500" enable-background="new 0 0 500 500" xml:space="preserve">
<path fill="#BFE5EF" opacity="1.000000" stroke="none" 
	d="
M1.000000,486.000000 
	C1.000000,324.368195 1.000000,162.736420 1.000000,1.052310 
	C167.595825,1.052310 334.191681,1.052310 500.893768,1.052310 
	C500.893768,167.559830 500.893768,334.119751 500.893768,501.000000 
	C339.641907,501.000000 178.283585,501.000000 16.456699,500.726135 
	C15.981954,500.269775 15.975787,500.087280 16.095583,499.597839 
	C33.137375,482.514404 50.053204,465.737854 67.275604,449.100220 
	C73.035095,454.487701 78.488007,459.736206 83.813477,465.291321 
	C79.898994,468.916962 76.111961,472.235992 73.120918,474.857391 
	C78.326103,480.513062 82.435150,484.977753 86.605148,489.508667 
	C90.455269,485.842621 94.158005,482.316895 98.034088,479.092896 
	C100.267677,481.541199 102.494858,483.553833 104.349419,485.865448 
	C107.203461,489.422882 109.414093,489.305908 112.659286,485.964203 
	C122.218102,476.121338 132.133347,466.624542 142.273026,457.039459 
	C169.344727,470.392914 197.177322,480.017181 227.157471,482.199463 
	C249.904602,483.855255 272.626434,483.998901 295.151489,479.458618 
	C320.472260,474.354736 344.339722,465.510254 366.803162,452.672333 
	C394.051636,437.099792 416.824249,416.517609 436.027130,391.877991 
	C450.455170,373.365051 461.321381,352.829224 469.493378,330.869995 
	C476.777679,311.296234 481.645782,290.993652 482.735901,270.236511 
	C483.963226,246.866943 483.606201,223.433304 478.086487,200.322525 
	C470.488220,168.509094 457.872589,139.143372 438.181366,112.719765 
	C443.389832,106.932030 448.945160,101.811165 453.395966,95.863716 
	C460.014709,87.019249 466.784119,78.062706 471.748260,68.271118 
	C476.272369,59.347469 470.057190,51.317410 459.737671,50.751236 
	C456.352051,43.895161 450.852356,42.018360 444.023346,42.450325 
	C443.616394,37.001213 439.769623,35.142525 435.763031,34.059158 
	C427.691620,31.876677 421.092682,36.107441 415.235504,40.535286 
	C405.490021,47.902519 396.365997,56.091820 386.933594,63.594566 
	C385.921753,62.166748 385.156708,60.729259 383.960754,60.045574 
	C370.855682,52.553818 358.064026,44.373405 344.448364,37.945042 
	C317.858154,25.391001 289.433655,19.301888 260.142517,18.194666 
	C247.264496,17.707869 234.252319,18.782822 221.397583,20.094542 
	C197.221985,22.561462 174.202240,29.621964 152.260925,39.939632 
	C119.715401,55.243816 92.036613,76.829102 69.475525,104.957352 
	C53.512447,124.859467 41.015800,146.699722 32.319420,170.640289 
	C24.804560,191.328232 20.342003,212.627457 18.730562,234.708557 
	C17.340137,253.761093 18.469618,272.494568 21.611086,291.184875 
	C25.808033,316.154785 34.312531,339.695160 45.854790,362.396790 
	C35.131306,373.356720 24.561911,384.031677 13.346093,395.359497 
	C17.556896,398.857971 21.297066,401.965393 24.916580,405.381073 
	C21.226927,409.311798 17.657927,412.934265 14.249770,416.393494 
	C18.733744,420.990997 23.033045,425.399139 27.356476,429.832031 
	C30.930941,426.484924 34.422413,423.215485 38.225296,420.082581 
	C39.956810,421.560547 41.341797,422.941620 42.803856,424.235626 
	C46.538719,427.541260 50.307941,430.808075 53.942787,434.399536 
	C51.923752,436.574524 50.017048,438.432007 48.128265,440.307587 
	C32.781605,455.546997 17.438253,470.789795 1.820486,486.022034 
	C1.364706,486.008301 1.182353,486.004150 1.000000,486.000000 
z"/>
<path fill="#BDE3ED" opacity="1.000000" stroke="none" 
	d="
M15.969620,499.904755 
	C15.975787,500.087280 15.981954,500.269775 15.994061,500.726135 
	C11.075477,501.000000 6.150953,501.000000 1.000000,501.000000 
	C1.000000,496.316681 1.000000,491.630981 1.000000,486.472656 
	C1.182353,486.004150 1.364706,486.008301 1.732826,486.383423 
	C5.981259,491.171387 10.023855,495.607452 14.151455,499.962952 
	C14.428533,500.255310 15.348606,499.938324 15.969620,499.904755 
z"/>
<path fill="#B1D4E0" opacity="1.000000" stroke="none" 
	d="
M46.008877,362.111847 
	C34.312531,339.695160 25.808033,316.154785 21.611086,291.184875 
	C18.469618,272.494568 17.340137,253.761093 18.730562,234.708557 
	C20.342003,212.627457 24.804560,191.328232 32.319420,170.640289 
	C41.015800,146.699722 53.512447,124.859467 69.475525,104.957352 
	C92.036613,76.829102 119.715401,55.243816 152.260925,39.939632 
	C174.202240,29.621964 197.221985,22.561462 221.397583,20.094542 
	C234.252319,18.782822 247.264496,17.707869 260.142517,18.194666 
	C289.433655,19.301888 317.858154,25.391001 344.448364,37.945042 
	C358.064026,44.373405 370.855682,52.553818 383.960754,60.045574 
	C385.156708,60.729259 385.921753,62.166748 386.664886,63.793087 
	C376.382507,73.965012 366.356964,83.635040 356.220184,93.187012 
	C354.861969,94.466888 352.885468,96.054192 351.291199,95.955154 
	C343.949280,95.499077 336.641388,94.495720 329.346130,93.691391 
	C330.493744,82.284409 327.451202,78.823708 317.025330,78.765106 
	C314.065399,70.453392 310.986938,69.157013 302.084778,71.806923 
	C301.160919,61.946114 294.648590,58.730743 286.730225,63.874496 
	C285.343964,64.775009 283.900055,65.725174 282.834259,66.956589 
	C278.264221,72.236763 273.904999,77.700882 269.279053,82.929947 
	C268.223602,84.122993 266.412354,84.647392 264.948975,85.479546 
	C264.644928,84.040268 263.989227,82.573959 264.097412,81.166367 
	C264.579163,74.899124 257.896271,67.576546 251.272919,70.740829 
	C248.171738,62.327301 244.890472,60.611958 236.799301,62.794472 
	C235.173965,53.731747 225.967300,48.681744 218.453644,57.761204 
	C213.832535,63.345329 208.046005,67.982361 202.633072,72.879204 
	C201.555893,73.853668 199.727829,74.698486 198.366486,74.543678 
	C190.150299,73.609436 181.979736,72.282448 173.772781,71.255714 
	C167.715836,70.497963 161.621887,69.444344 155.552887,69.497093 
	C142.816162,69.607803 137.657303,80.422386 128.929489,88.869080 
	C135.818939,90.854416 141.476822,92.484848 147.003357,94.436630 
	C146.215057,95.591034 145.558060,96.424095 144.741501,97.459496 
	C149.764923,99.430740 154.399353,101.249344 158.899567,103.373444 
	C157.434601,107.448654 160.839218,107.218170 162.626099,107.893944 
	C192.118988,119.047722 221.649612,130.101776 251.176208,141.166336 
	C257.179962,143.416138 263.201843,145.617477 269.142395,147.867920 
	C269.069458,147.894684 269.035278,147.743103 269.175598,148.050949 
	C269.939911,148.533890 270.563904,148.709000 271.134735,148.836487 
	C271.081543,148.788849 271.186371,148.691879 271.121216,149.053345 
	C272.727936,151.437820 274.341675,153.512436 276.081940,155.474792 
	C283.261353,163.570282 284.034851,170.999130 278.029938,179.896194 
	C275.071991,184.278793 271.737549,188.500290 268.044037,192.276947 
	C253.856049,206.784393 239.388901,221.018723 225.185608,235.511459 
	C222.302719,238.453079 219.701431,239.409225 215.544189,238.245834 
	C204.634964,235.192947 193.270584,234.602097 182.647491,238.372559 
	C172.882767,241.838364 163.623093,241.469788 153.964218,239.344208 
	C152.416199,239.003540 150.296173,238.787720 149.137375,239.559891 
	C142.297867,244.117355 135.664383,248.984024 128.206451,254.283142 
	C134.121964,257.551178 139.033920,260.264771 143.996094,263.199432 
	C144.046310,263.420471 144.034714,263.873657 143.870865,264.177246 
	C139.373383,272.573608 135.039764,280.666382 130.649597,288.864746 
	C129.220566,287.576935 127.191414,285.748291 123.989067,282.862366 
	C122.723091,284.787292 121.937057,286.556183 120.661270,287.837372 
	C97.293716,311.304230 73.871460,334.716644 50.443665,358.123413 
	C49.039139,359.526703 47.490467,360.785706 46.008877,362.111847 
z"/>
<path fill="#B1D4E0" opacity="1.000000" stroke="none" 
	d="
M438.034058,113.016830 
	C457.872589,139.143372 470.488220,168.509094 478.086487,200.322525 
	C483.606201,223.433304 483.963226,246.866943 482.735901,270.236511 
	C481.645782,290.993652 476.777679,311.296234 469.493378,330.869995 
	C461.321381,352.829224 450.455170,373.365051 436.027130,391.877991 
	C416.824249,416.517609 394.051636,437.099792 366.803162,452.672333 
	C344.339722,465.510254 320.472260,474.354736 295.151489,479.458618 
	C272.626434,483.998901 249.904602,483.855255 227.157471,482.199463 
	C197.177322,480.017181 169.344727,470.392914 142.431793,456.740906 
	C166.469025,432.088959 190.634491,407.704926 215.037186,383.560669 
	C218.680679,379.955750 220.087280,377.265411 215.609314,373.667145 
	C215.454102,373.542450 215.589600,373.055969 215.589600,373.772095 
	C225.879288,368.355255 235.758331,363.154572 245.784271,357.876587 
	C247.319870,360.324188 249.143982,363.231689 251.508606,367.000702 
	C256.170990,360.588806 260.662811,355.054626 264.353882,349.029877 
	C265.906799,346.495087 266.224884,342.934448 266.297119,339.821442 
	C266.422791,334.404938 264.794342,328.729980 265.904602,323.596649 
	C268.750671,310.437805 269.344757,297.453979 264.876770,284.743927 
	C263.119873,279.746094 264.255066,276.993225 267.821716,273.674316 
	C281.472839,260.971466 294.400909,247.449371 308.533691,235.322464 
	C316.880737,228.160110 326.757660,222.648438 336.382385,217.158447 
	C341.907135,214.007065 342.317352,214.688156 344.542664,220.977737 
	C358.313019,259.897980 372.067963,298.823730 385.849335,337.740112 
	C387.271362,341.755646 388.833801,345.721466 390.526611,350.231232 
	C393.819305,347.499084 396.587189,345.202423 399.594299,343.164795 
	C401.641266,348.510468 403.449005,353.597137 405.374115,359.013916 
	C408.114136,356.850403 410.552277,354.925293 413.078186,353.361633 
	C414.788940,358.145569 416.411896,362.568054 418.263428,367.613434 
	C422.440948,364.027527 425.786163,361.094208 429.198334,358.241028 
	C434.988586,353.399353 437.911682,347.188934 436.971100,339.735535 
	C435.539337,328.389374 434.024567,317.018127 431.695404,305.834442 
	C430.342255,299.337189 431.667786,294.892120 436.627594,290.505493 
	C441.952972,285.795532 446.721558,280.370453 451.224213,274.842896 
	C454.792572,270.462311 454.920105,264.788818 452.395508,261.899475 
	C448.929688,257.932953 445.039276,259.007294 441.058228,260.591248 
	C440.975891,252.023315 436.440002,249.046936 429.044525,252.333008 
	C427.990601,252.801300 426.991730,253.393478 425.953186,253.492661 
	C425.366943,249.857910 425.248291,246.491455 424.140503,243.490082 
	C420.310394,233.112747 421.017212,229.352600 428.911926,221.573654 
	C433.276367,217.273193 437.798553,213.101486 441.827576,208.502060 
	C444.919739,204.972168 446.601593,200.641357 443.402985,196.216919 
	C440.456848,192.141785 436.350067,192.520126 432.100403,193.668152 
	C431.155701,184.595215 425.294373,182.471375 416.904602,187.369171 
	C416.217102,183.256668 415.449432,179.585602 414.899933,175.882187 
	C413.536560,166.693787 412.690460,157.403824 410.804352,148.327606 
	C409.759979,143.301758 411.598206,140.090866 414.682373,136.922180 
	C422.451904,128.939774 430.248383,120.983559 438.034058,113.016830 
z"/>
<path fill="#061E41" opacity="1.000000" stroke="none" 
	d="
M425.967346,253.928314 
	C426.991730,253.393478 427.990601,252.801300 429.044525,252.333008 
	C436.440002,249.046936 440.975891,252.023315 440.907959,260.908508 
	C438.461761,265.028900 436.430145,268.673950 433.738556,271.739532 
	C429.907959,276.102325 425.824615,280.311981 421.409668,284.070770 
	C417.988800,286.983246 417.491577,290.198578 418.216553,294.209778 
	C419.839813,303.191101 420.862152,312.306732 422.964142,321.169647 
	C425.998749,333.964844 424.116791,344.829773 412.990387,353.000183 
	C410.552277,354.925293 408.114136,356.850403 405.374115,359.013916 
	C403.449005,353.597137 401.641266,348.510468 399.534424,342.781219 
	C385.804688,304.087494 372.436249,266.014130 358.851379,228.018143 
	C357.422455,224.021545 355.088409,220.204636 352.534576,216.781601 
	C345.393158,207.209473 333.908020,203.575409 323.350555,208.961273 
	C313.519409,213.976608 303.744568,219.823410 295.499207,227.072144 
	C279.625427,241.027191 264.774078,256.154724 249.722519,271.022552 
	C248.025665,272.698730 246.751755,275.943207 247.005524,278.272644 
	C248.951614,296.136780 251.366928,313.949371 253.510452,331.793091 
	C253.774017,333.987213 254.079529,336.774750 253.021072,338.424774 
	C248.641510,345.251984 243.744980,351.747589 238.665070,358.889771 
	C227.860779,339.733398 217.447159,321.269684 206.921051,302.606537 
	C202.196121,304.679169 197.814590,306.601166 193.433075,308.523163 
	C193.231735,308.154144 193.030411,307.785156 192.829086,307.416168 
	C195.287033,303.513702 197.744980,299.611206 200.407684,295.383636 
	C181.427673,284.774658 162.731186,274.324158 144.034714,263.873657 
	C144.034714,263.873657 144.046310,263.420471 144.235550,262.961609 
	C149.910370,258.462158 155.515961,254.571625 160.831833,250.318939 
	C163.562439,248.134445 166.184723,247.835022 169.543579,248.270432 
	C187.996597,250.662430 206.496002,252.696426 224.949905,255.081940 
	C228.366638,255.523605 230.498199,254.324493 232.746399,252.077057 
	C244.862122,239.965363 257.303314,228.171677 269.199219,215.850235 
	C277.611237,207.137268 285.853149,198.156769 293.205963,188.556580 
	C299.280548,180.625275 299.035767,173.148102 292.198334,165.882339 
	C286.049072,159.347855 278.254944,154.361252 271.186371,148.691879 
	C271.186371,148.691879 271.081543,148.788849 270.984131,148.547989 
	C270.269562,148.119125 269.652405,147.931107 269.035278,147.743103 
	C269.035278,147.743103 269.069458,147.894684 268.974792,147.564011 
	C247.272827,137.828293 225.819199,128.046509 204.004654,119.149643 
	C189.277710,113.143387 174.041962,108.384697 159.033798,103.067947 
	C154.399353,101.249344 149.764923,99.430740 144.741501,97.459496 
	C145.558060,96.424095 146.215057,95.591034 147.298111,94.278984 
	C149.777954,91.634872 151.986588,89.594994 153.857361,87.281860 
	C160.262665,79.362045 168.394119,77.117722 178.264511,78.779526 
	C189.865204,80.732666 201.557526,82.158752 213.234375,83.619469 
	C214.608826,83.791412 216.522430,83.144836 217.530579,82.187431 
	C224.140198,75.910492 230.569550,69.443718 237.057739,63.038925 
	C244.890472,60.611958 248.171738,62.327301 251.212524,71.126343 
	C248.157776,76.942543 245.012527,82.023689 241.661926,87.436562 
	C253.629364,89.612061 265.962463,91.764946 278.248718,94.158409 
	C280.885468,94.672081 282.406158,94.060364 284.151184,92.052437 
	C290.002563,85.319519 296.114990,78.813454 302.127472,72.220535 
	C310.986938,69.157013 314.065399,70.453392 316.934021,79.130508 
	C313.759186,85.760590 310.521271,91.689369 307.234619,97.707420 
	C325.904938,100.171440 344.686005,102.550888 363.425903,105.219566 
	C366.599335,105.671486 368.568939,104.915459 370.831604,102.772400 
	C386.047485,88.360893 401.258972,73.936676 416.805695,59.885956 
	C424.806458,52.655067 433.288849,45.854748 444.020813,42.821136 
	C450.852356,42.018360 456.352051,43.895161 459.722778,51.192158 
	C459.178162,55.895176 459.196198,60.307510 457.451172,63.851841 
	C454.758636,69.320770 451.429138,74.706795 447.370422,79.231514 
	C431.803619,96.585579 415.878082,113.619308 399.972107,130.665909 
	C397.974091,132.807190 397.245453,134.663452 397.703918,137.682892 
	C399.727478,151.009903 401.361786,164.395630 403.194824,177.752167 
	C404.056091,184.027863 405.048035,190.285614 406.090454,197.288681 
	C410.192200,193.694489 413.557953,190.745178 416.923737,187.795883 
	C425.294373,182.471375 431.155701,184.595215 431.984314,194.005219 
	C428.036102,199.576263 424.903290,205.441238 420.078522,209.034348 
	C410.280823,216.330917 406.994232,224.515076 410.881927,236.420410 
	C413.513458,244.478897 414.197357,253.173386 415.883362,262.291901 
	C419.646667,259.170624 422.807007,256.549469 425.967346,253.928314 
z"/>
<path fill="#FDFEFE" opacity="1.000000" stroke="none" 
	d="
M143.870865,264.177246 
	C162.731186,274.324158 181.427673,284.774658 200.407684,295.383636 
	C197.744980,299.611206 195.287033,303.513702 192.829086,307.416168 
	C193.030411,307.785156 193.231735,308.154144 193.433075,308.523163 
	C197.814590,306.601166 202.196121,304.679169 206.921051,302.606537 
	C217.447159,321.269684 227.860779,339.733398 238.665070,358.889771 
	C243.744980,351.747589 248.641510,345.251984 253.021072,338.424774 
	C254.079529,336.774750 253.774017,333.987213 253.510452,331.793091 
	C251.366928,313.949371 248.951614,296.136780 247.005524,278.272644 
	C246.751755,275.943207 248.025665,272.698730 249.722519,271.022552 
	C264.774078,256.154724 279.625427,241.027191 295.499207,227.072144 
	C303.744568,219.823410 313.519409,213.976608 323.350555,208.961273 
	C333.908020,203.575409 345.393158,207.209473 352.534576,216.781601 
	C355.088409,220.204636 357.422455,224.021545 358.851379,228.018143 
	C372.436249,266.014130 385.804688,304.087494 399.295227,342.522186 
	C396.587189,345.202423 393.819305,347.499084 390.526611,350.231232 
	C388.833801,345.721466 387.271362,341.755646 385.849335,337.740112 
	C372.067963,298.823730 358.313019,259.897980 344.542664,220.977737 
	C342.317352,214.688156 341.907135,214.007065 336.382385,217.158447 
	C326.757660,222.648438 316.880737,228.160110 308.533691,235.322464 
	C294.400909,247.449371 281.472839,260.971466 267.821716,273.674316 
	C264.255066,276.993225 263.119873,279.746094 264.876770,284.743927 
	C269.344757,297.453979 268.750671,310.437805 265.904602,323.596649 
	C264.794342,328.729980 266.422791,334.404938 266.297119,339.821442 
	C266.224884,342.934448 265.906799,346.495087 264.353882,349.029877 
	C260.662811,355.054626 256.170990,360.588806 251.508606,367.000702 
	C249.143982,363.231689 247.319870,360.324188 245.784271,357.876587 
	C235.758331,363.154572 225.879288,368.355255 215.589600,373.772095 
	C215.589600,373.055969 215.454102,373.542450 215.609314,373.667145 
	C220.087280,377.265411 218.680679,379.955750 215.037186,383.560669 
	C190.634491,407.704926 166.469025,432.088959 142.067841,456.693726 
	C132.133347,466.624542 122.218102,476.121338 112.659286,485.964203 
	C109.414093,489.305908 107.203461,489.422882 104.349419,485.865448 
	C102.494858,483.553833 100.267677,481.541199 98.169159,478.789185 
	C132.605499,443.768433 167.080124,409.353149 201.629471,374.863281 
	C194.815674,373.867615 188.578506,373.253784 182.491531,371.942780 
	C179.390488,371.274872 177.459015,371.602600 175.152390,373.943207 
	C157.847900,391.502686 140.396866,408.918121 122.940636,426.327454 
	C109.980362,439.252930 96.943604,452.101746 83.940918,464.984680 
	C78.488007,459.736206 73.035095,454.487701 67.383606,448.784241 
	C96.846230,418.749481 126.507431,389.169647 156.080704,359.677521 
	C151.458221,354.783203 147.273315,350.352203 142.725708,345.537140 
	C136.617111,351.705383 130.580933,357.865936 124.473946,363.955444 
	C101.016075,387.346100 77.535515,410.714020 54.063419,434.090424 
	C50.307941,430.808075 46.538719,427.541260 42.803856,424.235626 
	C41.341797,422.941620 39.956810,421.560547 38.342598,419.768738 
	C67.311760,390.171143 96.414162,360.962494 125.700958,331.939941 
	C130.337051,327.345642 134.340256,323.437012 131.298431,315.983948 
	C129.874268,312.494507 130.700394,308.103088 130.400589,304.128510 
	C130.307190,302.890198 129.866074,301.678101 129.650406,300.422913 
	C129.716675,300.391815 129.678696,300.610535 129.678696,300.610535 
	C129.678696,300.610535 129.671066,300.378754 129.535446,300.698822 
	C105.140289,325.288116 80.897797,349.574432 56.613224,373.818573 
	C46.132729,384.281586 35.565220,394.657410 25.037231,405.072845 
	C21.297066,401.965393 17.556896,398.857971 13.346093,395.359497 
	C24.561911,384.031677 35.131306,373.356720 45.854790,362.396790 
	C47.490467,360.785706 49.039139,359.526703 50.443665,358.123413 
	C73.871460,334.716644 97.293716,311.304230 120.661270,287.837372 
	C121.937057,286.556183 122.723091,284.787292 123.989067,282.862366 
	C127.191414,285.748291 129.220566,287.576935 130.649597,288.864746 
	C135.039764,280.666382 139.373383,272.573608 143.870865,264.177246 
z"/>
<path fill="#061E41" opacity="1.000000" stroke="none" 
	d="
M53.942787,434.399536 
	C77.535515,410.714020 101.016075,387.346100 124.473946,363.955444 
	C130.580933,357.865936 136.617111,351.705383 142.725708,345.537140 
	C147.273315,350.352203 151.458221,354.783203 156.080704,359.677521 
	C126.507431,389.169647 96.846230,418.749481 67.077026,448.645294 
	C50.053204,465.737854 33.137375,482.514404 16.095581,499.597839 
	C15.348606,499.938324 14.428533,500.255310 14.151455,499.962952 
	C10.023855,495.607452 5.981259,491.171387 2.006253,486.392975 
	C17.438253,470.789795 32.781605,455.546997 48.128265,440.307587 
	C50.017048,438.432007 51.923752,436.574524 53.942787,434.399536 
z"/>
<path fill="#061E41" opacity="1.000000" stroke="none" 
	d="
M129.584137,300.454010 
	C129.866074,301.678101 130.307190,302.890198 130.400589,304.128510 
	C130.700394,308.103088 129.874268,312.494507 131.298431,315.983948 
	C134.340256,323.437012 130.337051,327.345642 125.700958,331.939941 
	C96.414162,360.962494 67.311760,390.171143 38.031181,419.632202 
	C34.422413,423.215485 30.930941,426.484924 27.356476,429.832031 
	C23.033045,425.399139 18.733744,420.990997 14.249770,416.393494 
	C17.657927,412.934265 21.226927,409.311798 24.916578,405.381073 
	C35.565220,394.657410 46.132729,384.281586 56.613224,373.818573 
	C80.897797,349.574432 105.140289,325.288116 129.533737,300.740784 
	C129.667648,300.462646 129.584137,300.454010 129.584137,300.454010 
z"/>
<path fill="#082042" opacity="1.000000" stroke="none" 
	d="
M83.813477,465.291321 
	C96.943604,452.101746 109.980362,439.252930 122.940636,426.327454 
	C140.396866,408.918121 157.847900,391.502686 175.152390,373.943207 
	C177.459015,371.602600 179.390488,371.274872 182.491531,371.942780 
	C188.578506,373.253784 194.815674,373.867615 201.629471,374.863281 
	C167.080124,409.353149 132.605499,443.768433 97.995819,478.487427 
	C94.158005,482.316895 90.455269,485.842621 86.605148,489.508667 
	C82.435150,484.977753 78.326103,480.513062 73.120918,474.857391 
	C76.111961,472.235992 79.898994,468.916962 83.813477,465.291321 
z"/>
<path fill="#FCFDFD" opacity="1.000000" stroke="none" 
	d="
M416.904602,187.369171 
	C413.557953,190.745178 410.192200,193.694489 406.090454,197.288681 
	C405.048035,190.285614 404.056091,184.027863 403.194824,177.752167 
	C401.361786,164.395630 399.727478,151.009903 397.703918,137.682892 
	C397.245453,134.663452 397.974091,132.807190 399.972107,130.665909 
	C415.878082,113.619308 431.803619,96.585579 447.370422,79.231514 
	C451.429138,74.706795 454.758636,69.320770 457.451172,63.851841 
	C459.196198,60.307510 459.178162,55.895176 459.964966,51.430840 
	C470.057190,51.317410 476.272369,59.347469 471.748260,68.271118 
	C466.784119,78.062706 460.014709,87.019249 453.395966,95.863716 
	C448.945160,101.811165 443.389832,106.932030 438.181366,112.719757 
	C430.248383,120.983559 422.451904,128.939774 414.682373,136.922180 
	C411.598206,140.090866 409.759979,143.301758 410.804352,148.327606 
	C412.690460,157.403824 413.536560,166.693787 414.899933,175.882187 
	C415.449432,179.585602 416.217102,183.256668 416.904602,187.369171 
z"/>
<path fill="#FCFCFD" opacity="1.000000" stroke="none" 
	d="
M444.023346,42.450325 
	C433.288849,45.854748 424.806458,52.655067 416.805695,59.885956 
	C401.258972,73.936676 386.047485,88.360893 370.831604,102.772400 
	C368.568939,104.915459 366.599335,105.671486 363.425903,105.219566 
	C344.686005,102.550888 325.904938,100.171440 307.234619,97.707420 
	C310.521271,91.689369 313.759186,85.760590 317.088379,79.466408 
	C327.451202,78.823708 330.493744,82.284409 329.346130,93.691391 
	C336.641388,94.495720 343.949280,95.499077 351.291199,95.955154 
	C352.885468,96.054192 354.861969,94.466888 356.220184,93.187012 
	C366.356964,83.635040 376.382507,73.965012 386.711609,64.133453 
	C396.365997,56.091820 405.490021,47.902519 415.235504,40.535286 
	C421.092682,36.107441 427.691620,31.876677 435.763031,34.059158 
	C439.769623,35.142525 443.616394,37.001213 444.023346,42.450325 
z"/>
<path fill="#FBFCFC" opacity="1.000000" stroke="none" 
	d="
M271.121216,149.053345 
	C278.254944,154.361252 286.049072,159.347855 292.198334,165.882339 
	C299.035767,173.148102 299.280548,180.625275 293.205963,188.556580 
	C285.853149,198.156769 277.611237,207.137268 269.199219,215.850235 
	C257.303314,228.171677 244.862122,239.965363 232.746399,252.077057 
	C230.498199,254.324493 228.366638,255.523605 224.949905,255.081940 
	C206.496002,252.696426 187.996597,250.662430 169.543579,248.270432 
	C166.184723,247.835022 163.562439,248.134445 160.831833,250.318939 
	C155.515961,254.571625 149.910370,258.462158 144.185333,262.740540 
	C139.033920,260.264771 134.121964,257.551178 128.206451,254.283142 
	C135.664383,248.984024 142.297867,244.117355 149.137375,239.559891 
	C150.296173,238.787720 152.416199,239.003540 153.964218,239.344208 
	C163.623093,241.469788 172.882767,241.838364 182.647491,238.372559 
	C193.270584,234.602097 204.634964,235.192947 215.544189,238.245834 
	C219.701431,239.409225 222.302719,238.453079 225.185608,235.511459 
	C239.388901,221.018723 253.856049,206.784393 268.044037,192.276947 
	C271.737549,188.500290 275.071991,184.278793 278.029938,179.896194 
	C284.034851,170.999130 283.261353,163.570282 276.081940,155.474792 
	C274.341675,153.512436 272.727936,151.437820 271.121216,149.053345 
z"/>
<path fill="#FBFCFD" opacity="1.000000" stroke="none" 
	d="
M236.799301,62.794476 
	C230.569550,69.443718 224.140198,75.910492 217.530579,82.187431 
	C216.522430,83.144836 214.608826,83.791412 213.234375,83.619469 
	C201.557526,82.158752 189.865204,80.732666 178.264511,78.779526 
	C168.394119,77.117722 160.262665,79.362045 153.857361,87.281860 
	C151.986588,89.594994 149.777954,91.634872 147.429443,93.957642 
	C141.476822,92.484848 135.818939,90.854416 128.929489,88.869080 
	C137.657303,80.422386 142.816162,69.607803 155.552887,69.497093 
	C161.621887,69.444344 167.715836,70.497963 173.772781,71.255714 
	C181.979736,72.282448 190.150299,73.609436 198.366486,74.543678 
	C199.727829,74.698486 201.555893,73.853668 202.633072,72.879204 
	C208.046005,67.982361 213.832535,63.345329 218.453644,57.761204 
	C225.967300,48.681744 235.173965,53.731747 236.799301,62.794476 
z"/>
<path fill="#FBFCFC" opacity="1.000000" stroke="none" 
	d="
M302.084778,71.806923 
	C296.114990,78.813454 290.002563,85.319519 284.151184,92.052437 
	C282.406158,94.060364 280.885468,94.672081 278.248718,94.158409 
	C265.962463,91.764946 253.629364,89.612061 241.661926,87.436562 
	C245.012527,82.023689 248.157776,76.942543 251.363434,71.475891 
	C257.896271,67.576546 264.579163,74.899124 264.097412,81.166367 
	C263.989227,82.573959 264.644928,84.040268 264.948975,85.479546 
	C266.412354,84.647392 268.223602,84.122993 269.279053,82.929947 
	C273.904999,77.700882 278.264221,72.236763 282.834259,66.956589 
	C283.900055,65.725174 285.343964,64.775009 286.730225,63.874496 
	C294.648590,58.730743 301.160919,61.946114 302.084778,71.806923 
z"/>
<path fill="#FBFCFC" opacity="1.000000" stroke="none" 
	d="
M158.899567,103.373444 
	C174.041962,108.384697 189.277710,113.143387 204.004654,119.149643 
	C225.819199,128.046509 247.272827,137.828293 269.047729,147.537247 
	C263.201843,145.617477 257.179962,143.416138 251.176208,141.166336 
	C221.649612,130.101776 192.118988,119.047722 162.626099,107.893944 
	C160.839218,107.218170 157.434601,107.448654 158.899567,103.373444 
z"/>
<path fill="#FBFCFC" opacity="1.000000" stroke="none" 
	d="
M269.175598,148.050949 
	C269.652405,147.931107 270.269562,148.119125 271.037292,148.595612 
	C270.563904,148.709000 269.939911,148.533890 269.175598,148.050949 
z"/>
<path fill="#FCFCFD" opacity="1.000000" stroke="none" 
	d="
M413.078186,353.361633 
	C424.116791,344.829773 425.998749,333.964844 422.964142,321.169647 
	C420.862152,312.306732 419.839813,303.191101 418.216553,294.209778 
	C417.491577,290.198578 417.988800,286.983246 421.409668,284.070770 
	C425.824615,280.311981 429.907959,276.102325 433.738556,271.739532 
	C436.430145,268.673950 438.461761,265.028900 440.938385,261.325378 
	C445.039276,259.007294 448.929688,257.932953 452.395508,261.899475 
	C454.920105,264.788818 454.792572,270.462311 451.224213,274.842896 
	C446.721558,280.370453 441.952972,285.795532 436.627594,290.505493 
	C431.667786,294.892120 430.342255,299.337189 431.695404,305.834442 
	C434.024567,317.018127 435.539337,328.389374 436.971100,339.735535 
	C437.911682,347.188934 434.988586,353.399353 429.198334,358.241028 
	C425.786163,361.094208 422.440948,364.027527 418.263428,367.613434 
	C416.411896,362.568054 414.788940,358.145569 413.078186,353.361633 
z"/>
<path fill="#FBFCFC" opacity="1.000000" stroke="none" 
	d="
M425.953186,253.492645 
	C422.807007,256.549469 419.646667,259.170624 415.883362,262.291901 
	C414.197357,253.173386 413.513458,244.478897 410.881927,236.420410 
	C406.994232,224.515076 410.280823,216.330917 420.078522,209.034348 
	C424.903290,205.441238 428.036102,199.576263 432.050659,194.402252 
	C436.350067,192.520126 440.456848,192.141785 443.402985,196.216919 
	C446.601593,200.641357 444.919739,204.972168 441.827576,208.502060 
	C437.798553,213.101486 433.276367,217.273193 428.911926,221.573654 
	C421.017212,229.352600 420.310394,233.112747 424.140503,243.490082 
	C425.248291,246.491455 425.366943,249.857910 425.953186,253.492645 
z"/>
<path fill="#061E41" opacity="1.000000" stroke="none" 
	d="
M129.669357,300.420715 
	C129.671066,300.378754 129.678696,300.610535 129.678696,300.610535 
	C129.678696,300.610535 129.716675,300.391815 129.650406,300.422913 
	C129.584137,300.454010 129.667648,300.462646 129.669357,300.420715 
z"/>
</svg>